<svg width="734" height="640" viewBox="0 0 734 640" fill="none" xmlns="http://www.w3.org/2000/svg" xmlns:xlink="http://www.w3.org/1999/xlink">
<path d="M0 0H734V640H0V0Z" fill="url(#pattern0)"/>
<defs>
<pattern id="pattern0" patternContentUnits="objectBoundingBox" width="1" height="1">
<use xlink:href="#image0" transform="translate(-0.00408719) scale(0.0013624 0.0015625)"/>
</pattern>
<image id="image0" width="740" height="640" xlink:href="img/home.png"/>
</defs>
<path d="M221 531L441.8 539L511 525.3V547L442.5 566.7L221 555.7V531Z" fill="#3595F6" fill-opacity="0.75"/>
<path d="M222 531V506L442.3 509.3L512 506V526L442.7 539L222 531Z" fill="#3595F6" fill-opacity="0.75"/>
<path d="M222 505V480H443H512V503L444 510L222 505Z" fill="#3595F6" fill-opacity="0.75"/>
<path d="M222 480V455L443.3 451.3L511 458V480H443" fill="#3595F6" fill-opacity="0.75"/>
<path d="M222 455V429L443.5 425.7L512 436.7V458L443 451.3L222 455Z" fill="#3595F6" fill-opacity="0.75"/>
<path d="M221 428V404.3L442 392L513 415V436.3L442 424L221 428Z" fill="#3595F6" fill-opacity="0.75"/>
<path d="M221 405V380L443.2 363.7L513 392.3V413L442.7 391.3L221 405Z" fill="#3595F6" fill-opacity="0.75"/>
<path d="M221 381V356L443.5 335.7L513 372.3V393L441 364.3L221 381Z" fill="#3595F6" fill-opacity="0.75"/>
<path d="M221 356V332L444 307.3L513 351.3V373L443.7 335L221 356Z" fill="#3595F6" fill-opacity="0.75"/>
<path d="M221 330V306L443.5 277.3L513 328.3V349L442.7 306.7L221 330Z" fill="#3595F6" fill-opacity="0.75"/>
<path d="M220 306V282L442.3 249L513 308.3V328L443 277.3L220 306Z" fill="#3595F6" fill-opacity="0.75"/>
<path d="M221 281V257L442.2 222L512 286V307L443.3 248.7L221 281Z" fill="#3595F6" fill-opacity="0.75"/>
<path d="M221 257V232L443.3 194L512 264.3V285L443 221L221 257Z" fill="#3595F6" fill-opacity="0.75"/>
<path d="M221 233V208L441.8 164.3L512 243.3V266L443 192.7L221 233Z" fill="#3595F6" fill-opacity="0.75"/>
<path d="M222 208V183L442 135L512 220V243L441.3 163.7L222 208Z" fill="#3595F6" fill-opacity="0.75"/>
<path d="M221 183V158L440.8 106L512 198.3V221L442.3 134.7L221 183Z" fill="#3595F6" fill-opacity="0.75"/>
<path d="M221 159V133L443 76.3L512 178V199L442.7 107.3L221 159Z" fill="#3595F6" fill-opacity="0.75"/>

</svg>
